HIERARCHY
ROOT pelvis
{
  OFFSET 0 100 0
  CHANNELS 6 Xposition Yposition Zposition Zrotation Xrotation Yrotation
  JOINT pelvis_right_femur
  {
    OFFSET -10.78128 -3.44521 -0.5502486
    CHANNELS 3 Zrotation Xrotation Yrotation
    JOINT right_femur_tibia
    {
      OFFSET -0.8047443 -44.0398 -0.1307829
      CHANNELS 3 Zrotation Xrotation Yrotation
      JOINT right_tibia_foot
      {
        OFFSET 3.006224 -47.83518 -5
        CHANNELS 3 Zrotation Xrotation Yrotation
        End Site
        {
          OFFSET 0 -5 15
        }
      }
    }
  }
  JOINT pelvis_left_femur
  {
    OFFSET 10.78128 -3.44521 -0.5502486
    CHANNELS 3 Zrotation Xrotation Yrotation
    JOINT left_femur_tibia
    {
      OFFSET 0.8047443 -44.0398 -0.1307829
      CHANNELS 3 Zrotation Xrotation Yrotation
      JOINT left_tibia_foot
      {
        OFFSET -4.370144 -48.10324 -4.275266
        CHANNELS 3 Zrotation Xrotation Yrotation
        End Site
        {
          OFFSET 0 -5 15
        }
      }
    }
  }
  JOINT pelvis_spine1
  {
    OFFSET 0 6.468898 -3.129235
    CHANNELS 3 Zrotation Xrotation Yrotation
    JOINT spine1
    {
      OFFSET 0 23.15396 4.99043
      CHANNELS 3 Zrotation Xrotation Yrotation
      JOINT spine2
      {
        OFFSET 0 20.79997 -5.064912
        CHANNELS 3 Zrotation Xrotation Yrotation
        JOINT neck
        {
          OFFSET 0 14.38658 9.616178
          CHANNELS 3 Zrotation Xrotation Yrotation
          End Site
          {
            OFFSET 0 20 0
          }
        }
      }
      JOINT right_manubrium
      {
        OFFSET -5.722621 16.35077 3.967754
        CHANNELS 3 Zrotation Xrotation Yrotation
        JOINT right_clavicle
        {
          OFFSET -13.16364 1.694482 -4.693211
          CHANNELS 3 Zrotation Xrotation Yrotation
          JOINT right_humerus
          {
            OFFSET -28.5034 -0.3100689 -2.792744
            CHANNELS 3 Zrotation Xrotation Yrotation
            JOINT right_radius
            {
              OFFSET -25.15693 0.02248979 -1.271978
              CHANNELS 3 Zrotation Xrotation Yrotation
              End Site
              {
                OFFSET -15 0 0
              }
            }
          }
        }
      }
      JOINT left_manubrium
      {
        OFFSET 5.722621 16.35077 3.967754
        CHANNELS 3 Zrotation Xrotation Yrotation
        JOINT left_clavicle
        {
          OFFSET 13.16364 1.694482 -4.693211
          CHANNELS 3 Zrotation Xrotation Yrotation
          JOINT left_humerus
          {
            OFFSET 29.39168 -1.063119 -2.237045
            CHANNELS 3 Zrotation Xrotation Yrotation
            JOINT left_radius
            {
              OFFSET 24.59957 -0.9528479 0.9047498
              CHANNELS 3 Zrotation Xrotation Yrotation
              End Site
              {
                OFFSET 15 -0 -0
              }
            }
          }
        }
      }
    }
  }
}
MOTION
Frames: 9
Frame Time: 0.0416666666667
-76.35751 118.7695 546.2773 -10.29924 -7.924262 -51.26782 6.826064 12.1754 5.084234 -0 17.57942 -0 -7.236793 -10.42033 -4.935873 4.194713 -12.46811 -3.595016 -0 20.4485 -0 2.950862 0.4441345 11.79626 3.508139 -5.228729 9.243159 -1.515791 19.07533 -6.210167 2.561091 17.53175 -0.8132532 -1.30403 -14.87058 3.383706 -5.634039 -35.08868 12.06886 94.35625 8.699036 -12.16733 -0 0 35.03474 -27.85079 22.08715 18.23453 -1.362782 -22.1245 -11.5156 -92.78288 11.78826 42.00236 0 0 -20.06384 -3.641006 14.79288 18.40938
-80.29859 118.7389 551.018 -10.42086 -7.762863 -52.159 6.826064 12.1754 5.084234 -0 17.57942 -0 -7.236793 -10.42033 -4.935873 4.194713 -12.46811 -3.595016 -0 20.4485 -0 2.950862 0.4441345 11.79626 3.508139 -5.228729 9.243159 -1.515791 19.07533 -6.210167 2.561091 17.53175 -0.8132532 -1.30403 -14.87058 3.383706 -5.634039 -35.08868 12.06886 94.35625 8.699036 -12.16733 -0 0 35.03474 -27.85079 22.08715 18.23453 -1.362782 -22.1245 -11.5156 -92.78288 11.78826 42.00236 0 0 -20.06384 -3.641006 14.79288 18.40938
-84.31344 118.7083 555.6963 -10.53989 -7.599609 -53.0495 6.826064 12.1754 5.084234 -0 17.57942 -0 -7.236793 -10.42033 -4.935873 4.194713 -12.46811 -3.595016 -0 20.4485 -0 2.950862 0.4441345 11.79626 3.508139 -5.228729 9.243159 -1.515791 19.07533 -6.210167 2.561091 17.53175 -0.8132532 -1.30403 -14.87058 3.383706 -5.634039 -35.08868 12.06886 94.35625 8.699036 -12.16733 -0 0 35.03474 -27.85079 22.08715 18.23453 -1.362782 -22.1245 -11.5156 -92.78288 11.78826 42.00236 0 0 -20.06384 -3.641006 14.79288 18.40938
-88.40108 118.6777 560.3112 -10.6563 -7.434543 -53.93932 6.826064 12.1754 5.084234 -0 17.57942 -0 -7.236793 -10.42033 -4.935873 4.194713 -12.46811 -3.595016 -0 20.4485 -0 2.950862 0.4441345 11.79626 3.508139 -5.228729 9.243159 -1.515791 19.07533 -6.210167 2.561091 17.53175 -0.8132532 -1.30403 -14.87058 3.383706 -5.634039 -35.08868 12.06886 94.35625 8.699036 -12.16733 -0 0 35.03474 -27.85079 22.08715 18.23453 -1.362782 -22.1245 -11.5156 -92.78288 11.78826 42.00236 0 0 -20.06384 -3.641006 14.79288 18.40938
-92.5605 118.6471 564.8615 -10.77007 -7.267705 -54.82846 6.826064 12.1754 5.084234 -0 17.57942 -0 -7.236793 -10.42033 -4.935873 4.194713 -12.46811 -3.595016 -0 20.4485 -0 2.950862 0.4441345 11.79626 3.508139 -5.228729 9.243159 -1.515791 19.07533 -6.210167 2.561091 17.53175 -0.8132532 -1.30403 -14.87058 3.383706 -5.634039 -35.08868 12.06886 94.35625 8.699036 -12.16733 -0 0 35.03474 -27.85079 22.08715 18.23453 -1.362782 -22.1245 -11.5156 -92.78288 11.78826 42.00236 0 0 -20.06384 -3.641006 14.79288 18.40938
-96.79069 118.6166 569.3462 -10.88117 -7.099137 -55.71694 6.826064 12.1754 5.084234 -0 17.57942 -0 -7.236793 -10.42033 -4.935873 4.194713 -12.46811 -3.595016 -0 20.4485 -0 2.950862 0.4441345 11.79626 3.508139 -5.228729 9.243159 -1.515791 19.07533 -6.210167 2.561091 17.53175 -0.8132532 -1.30403 -14.87058 3.383706 -5.634039 -35.08868 12.06886 94.35625 8.699036 -12.16733 -0 0 35.03474 -27.85079 22.08715 18.23453 -1.362782 -22.1245 -11.5156 -92.78288 11.78826 42.00236 0 0 -20.06384 -3.641006 14.79288 18.40938
-101.0906 118.586 573.764 -10.98959 -6.92888 -56.60476 6.826064 12.1754 5.084234 -0 17.57942 -0 -7.236793 -10.42033 -4.935873 4.194713 -12.46811 -3.595016 -0 20.4485 -0 2.950862 0.4441345 11.79626 3.508139 -5.228729 9.243159 -1.515791 19.07533 -6.210167 2.561091 17.53175 -0.8132532 -1.30403 -14.87058 3.383706 -5.634039 -35.08868 12.06886 94.35625 8.699036 -12.16733 -0 0 35.03474 -27.85079 22.08715 18.23453 -1.362782 -22.1245 -11.5156 -92.78288 11.78826 42.00236 0 0 -20.06384 -3.641006 14.79288 18.40938
-105.4592 118.5554 578.1139 -11.09529 -6.756977 -57.49194 6.826064 12.1754 5.084234 -0 17.57942 -0 -7.236793 -10.42033 -4.935873 4.194713 -12.46811 -3.595016 -0 20.4485 -0 2.950862 0.4441345 11.79626 3.508139 -5.228729 9.243159 -1.515791 19.07533 -6.210167 2.561091 17.53175 -0.8132532 -1.30403 -14.87058 3.383706 -5.634039 -35.08868 12.06886 94.35625 8.699036 -12.16733 -0 0 35.03474 -27.85079 22.08715 18.23453 -1.362782 -22.1245 -11.5156 -92.78288 11.78826 42.00236 0 0 -20.06384 -3.641006 14.79288 18.40938
-109.8954 118.5248 582.3948 -11.19827 -6.583471 -58.37849 6.826064 12.1754 5.084234 -0 17.57942 -0 -7.236793 -10.42033 -4.935873 4.194713 -12.46811 -3.595016 -0 20.4485 -0 2.950862 0.4441345 11.79626 3.508139 -5.228729 9.243159 -1.515791 19.07533 -6.210167 2.561091 17.53175 -0.8132532 -1.30403 -14.87058 3.383706 -5.634039 -35.08868 12.06886 94.35625 8.699036 -12.16733 -0 0 35.03474 -27.85079 22.08715 18.23453 -1.362782 -22.1245 -11.5156 -92.78288 11.78826 42.00236 0 0 -20.06384 -3.641006 14.79288 18.40938
